# This file uses centimeters as units for non-parametric coordinates.

mtllib InsideBend_LP.mtl
g default
v 1.000000 0.000000 0.000000
v 0.497563 0.000000 0.000000
v -0.000024 0.000000 0.000000
v 1.000000 1.000000 0.000000
v 0.497563 1.000000 0.000000
v 0.000024 0.600000 0.000000
v 1.581178 1.000000 -1.421036
v 1.228321 1.000000 -1.774589
v 0.875903 0.600000 -2.128142
v 1.581178 0.000000 -1.421036
v 1.228321 0.000000 -1.774589
v 0.875788 0.000000 -2.128142
v 3.000000 1.000000 -2.000000
v 3.000000 1.000000 -2.509648
v 3.000000 0.600000 -3.009648
v 3.000000 0.000000 -2.000000
v 3.000000 0.000000 -2.509648
v 3.000000 0.000000 -3.009648
v 2.231553 1.000000 -1.856673
v 2.231553 0.000000 -1.856673
v 2.040543 0.000000 -2.318612
v 1.849594 0.000000 -2.780552
v 1.849594 0.600000 -2.780552
v 2.040543 1.000000 -2.318612
v 2.608094 0.000000 -1.971033
v 2.608094 1.000000 -1.971033
v 2.510637 1.000000 -2.461426
v 2.413197 0.600000 -2.951818
v 2.413197 0.000000 -2.951818
v 2.510637 0.000000 -2.461426
v 1.884820 1.000000 -1.670961
v 1.884820 0.000000 -1.670961
v 1.607566 0.000000 -2.086696
v 1.330506 0.000000 -2.502431
v 1.330637 0.600000 -2.502431
v 1.607566 1.000000 -2.086696
v 2.803060 0.000000 -1.999971
v 2.803060 1.000000 -1.999971
v 2.754073 1.000000 -2.497563
v 2.705091 0.600000 -2.995156
v 2.705091 0.000000 -2.995156
v 2.754073 0.000000 -2.497563
v 2.416980 1.000000 -1.923113
v 2.416980 0.000000 -1.923113
v 2.272029 0.000000 -2.401583
v 2.127117 0.000000 -2.880054
v 2.127117 0.600000 -2.880054
v 2.272029 1.000000 -2.401583
v 2.053597 0.000000 -1.772351
v 2.053597 1.000000 -1.772351
v 1.818354 1.000000 -2.213312
v 1.583280 0.600000 -2.654272
v 1.583188 0.000000 -2.654272
v 1.818354 0.000000 -2.213312
v 1.726841 1.000000 -1.553479
v 1.726841 0.000000 -1.553479
v 1.410258 0.000000 -1.939984
v 1.093984 0.000000 -2.326489
v 1.094107 0.600000 -2.326489
v 1.410258 1.000000 -1.939984
v 1.147572 1.000000 -0.769059
v 1.147572 0.000000 -0.769059
v 0.686608 0.000000 -0.960401
v 0.225786 0.000000 -1.151742
v 0.225868 0.600000 -1.151742
v 0.686608 1.000000 -0.960401
v 1.332254 0.000000 -1.116500
v 1.332254 1.000000 -1.116500
v 0.917371 1.000000 -1.394286
v 0.502826 0.600000 -1.672071
v 0.502728 0.000000 -1.672071
v 0.917371 0.000000 -1.394286
v 1.034203 1.000000 -0.392063
v 1.034203 0.000000 -0.392063
v 0.544862 0.000000 -0.489608
v 0.055558 0.000000 -0.587153
v 0.055623 0.600000 -0.587153
v 0.544862 1.000000 -0.489608
v 1.005729 1.000000 -0.196980
v 1.005729 0.000000 -0.196980
v 0.509207 0.000000 -0.245989
v 0.012668 0.000000 -0.294997
v 0.012724 0.600000 -0.294997
v 0.509207 1.000000 -0.245989
v 1.081636 0.000000 -0.583370
v 1.081636 1.000000 -0.583370
v 0.604186 1.000000 -0.728512
v 0.126899 0.600000 -0.873655
v 0.126826 0.000000 -0.873655
v 0.604186 0.000000 -0.728512
v 1.231380 1.000000 -0.947341
v 1.231380 0.000000 -0.947341
v 0.791338 0.000000 -1.183040
v 0.351489 0.000000 -1.418738
v 0.351578 0.600000 -1.418738
v 0.791338 1.000000 -1.183040
v 1.449227 0.000000 -1.274907
v 1.449227 1.000000 -1.274907
v 1.063499 1.000000 -1.592104
v 0.678160 0.600000 -1.909300
v 0.678054 0.000000 -1.909300
v 1.063499 0.000000 -1.592104
vt 0.100431 0.474850
vt 0.100431 0.005532
vt 0.178219 0.005532
vt 0.178219 0.474850
vt 0.272947 0.474850
vt 0.272947 0.005532
vt 0.432271 0.474850
vt 0.432271 0.005532
vt 0.588711 0.005532
vt 0.588711 0.474850
vt 0.017199 0.005532
vt 0.095418 0.005532
vt 0.095418 0.474850
vt 0.017199 0.474850
vt 0.277340 0.005532
vt 0.355559 0.005532
vt 0.355559 0.474850
vt 0.277340 0.474850
vt 0.427785 0.005532
vt 0.427785 0.474850
vt 0.768254 0.010777
vt 0.846474 0.010777
vt 0.846474 0.167216
vt 0.768254 0.167216
vt 0.924694 0.010777
vt 0.924694 0.104640
vt 0.017199 0.514687
vt 0.095418 0.514687
vt 0.095418 0.984005
vt 0.017199 0.984005
vt 0.272947 0.984005
vt 0.178219 0.984005
vt 0.178219 0.514687
vt 0.272947 0.514687
vt 0.764417 0.676054
vt 0.686198 0.676370
vt 0.685566 0.519932
vt 0.763785 0.519616
vt 0.607726 0.614111
vt 0.607347 0.520248
vt 0.277340 0.514687
vt 0.355559 0.514687
vt 0.355559 0.984005
vt 0.277340 0.984005
vt 0.427785 0.514687
vt 0.427785 0.984005
vt 0.100431 0.984005
vt 0.100431 0.514687
vt 0.432271 0.984005
vt 0.432271 0.514687
vt 0.588711 0.514687
vt 0.588711 0.984005
vt 0.588711 0.749346
vt 0.017199 0.749346
vt 0.432271 0.749346
vt 0.277340 0.749346
vt 0.355559 0.749346
vt 0.427785 0.749346
vt 0.100431 0.749346
vt 0.178219 0.749346
vt 0.095418 0.749346
vt 0.272947 0.749346
vt 0.432271 0.866675
vt 0.277340 0.632016
vt 0.588711 0.866675
vt 0.017199 0.866675
vt 0.095418 0.866675
vt 0.272947 0.632016
vt 0.178219 0.632016
vt 0.427785 0.632016
vt 0.100431 0.632016
vt 0.355559 0.632016
vt 0.588711 0.632016
vt 0.017199 0.632016
vt 0.432271 0.632016
vt 0.277340 0.866675
vt 0.355559 0.866675
vt 0.427785 0.866675
vt 0.100431 0.866675
vt 0.178219 0.866675
vt 0.095418 0.632016
vt 0.272947 0.866675
vt 0.432271 0.925340
vt 0.277340 0.573352
vt 0.588711 0.925340
vt 0.017199 0.925340
vt 0.095418 0.925340
vt 0.272947 0.573352
vt 0.178219 0.573352
vt 0.427785 0.573352
vt 0.100431 0.573352
vt 0.355559 0.573352
vt 0.588711 0.808011
vt 0.017199 0.808011
vt 0.432271 0.808011
vt 0.277340 0.690681
vt 0.355559 0.690681
vt 0.427785 0.690681
vt 0.100431 0.690681
vt 0.178219 0.690681
vt 0.095418 0.808011
vt 0.272947 0.690681
vt 0.432271 0.690681
vt 0.277340 0.808011
vt 0.588711 0.690681
vt 0.017199 0.690681
vt 0.095418 0.690681
vt 0.272947 0.808011
vt 0.178219 0.808011
vt 0.427785 0.808011
vt 0.100431 0.808011
vt 0.355559 0.808011
vt 0.588711 0.573352
vt 0.017199 0.573352
vt 0.432271 0.573352
vt 0.277340 0.925340
vt 0.355559 0.925340
vt 0.427785 0.925340
vt 0.100431 0.925340
vt 0.178219 0.925340
vt 0.095418 0.573352
vt 0.272947 0.925340
vt 0.588711 0.240191
vt 0.017199 0.240191
vt 0.432271 0.240191
vt 0.277340 0.240191
vt 0.355559 0.240191
vt 0.427785 0.240191
vt 0.100431 0.240191
vt 0.178219 0.240191
vt 0.095418 0.240191
vt 0.272947 0.240191
vt 0.432271 0.357520
vt 0.277340 0.122861
vt 0.588711 0.357520
vt 0.017199 0.357520
vt 0.095418 0.357520
vt 0.272947 0.122861
vt 0.178219 0.122861
vt 0.427785 0.122861
vt 0.100431 0.122861
vt 0.355559 0.122861
vt 0.588711 0.122861
vt 0.017199 0.122861
vt 0.432271 0.122861
vt 0.277340 0.357520
vt 0.355559 0.357520
vt 0.427785 0.357520
vt 0.100431 0.357520
vt 0.178219 0.357520
vt 0.095418 0.122861
vt 0.272947 0.357520
vt 0.588711 0.064197
vt 0.017199 0.064197
vt 0.432271 0.064197
vt 0.277340 0.416185
vt 0.355559 0.416185
vt 0.427785 0.416185
vt 0.100431 0.416185
vt 0.178219 0.416185
vt 0.095418 0.064197
vt 0.272947 0.416185
vt 0.432271 0.181526
vt 0.277340 0.298856
vt 0.588711 0.181526
vt 0.017199 0.181526
vt 0.095418 0.181526
vt 0.272947 0.298856
vt 0.178219 0.298856
vt 0.427785 0.298856
vt 0.100431 0.298856
vt 0.355559 0.298856
vt 0.588711 0.298856
vt 0.017199 0.298856
vt 0.432271 0.298856
vt 0.277340 0.181526
vt 0.355559 0.181526
vt 0.427785 0.181526
vt 0.100431 0.181526
vt 0.178219 0.181526
vt 0.095418 0.298856
vt 0.272947 0.181526
vt 0.432271 0.416185
vt 0.277340 0.064197
vt 0.588711 0.416185
vt 0.017199 0.416185
vt 0.095418 0.416185
vt 0.272947 0.064197
vt 0.178219 0.064197
vt 0.427785 0.064197
vt 0.100431 0.064197
vt 0.355559 0.064197
vn 0.000000 0.000000 1.000000
vn 0.000000 0.000000 1.000000
vn 0.000000 0.000000 1.000000
vn 0.000000 0.000000 1.000000
vn 0.000000 0.000000 1.000000
vn 0.000000 0.000000 1.000000
vn 0.000000 1.000000 0.000000
vn 0.000000 1.000000 0.000000
vn -0.409768 0.911350 -0.039137
vn -0.411239 0.911340 -0.018505
vn -0.622938 0.779998 -0.059594
vn -0.625886 0.779406 -0.028164
vn 0.000000 -1.000000 0.000000
vn 0.000000 -1.000000 0.000000
vn 0.000000 -1.000000 0.000000
vn 0.000000 -1.000000 0.000000
vn 0.000000 -1.000000 0.000000
vn 0.000000 -1.000000 0.000000
vn -0.999075 0.000087 -0.042997
vn -0.999075 0.000087 -0.042997
vn -0.995548 0.000094 -0.094257
vn -0.995548 0.000094 -0.094256
vn 0.996216 0.000000 0.086908
vn 0.999577 0.000000 0.029070
vn 0.999577 0.000000 0.029070
vn 0.996216 0.000000 0.086908
vn 0.000000 1.000000 0.000000
vn 0.000000 1.000000 0.000000
vn -0.261467 0.911450 -0.317640
vn -0.276723 0.911458 -0.304415
vn -0.397259 0.780472 -0.482751
vn -0.420886 0.780052 -0.463004
vn 1.000000 0.000000 0.000000
vn 1.000000 0.000000 0.000000
vn 1.000000 0.000000 0.000000
vn 1.000000 0.000000 0.000000
vn 1.000000 0.000000 0.000000
vn 1.000000 0.000000 0.000000
vn 0.000000 -1.000000 0.000000
vn 0.000000 -1.000000 0.000000
vn 0.000000 -1.000000 0.000000
vn 0.000000 -1.000000 0.000000
vn 0.000000 -1.000000 0.000000
vn 0.000000 -1.000000 0.000000
vn -0.672642 0.000133 -0.739968
vn -0.672642 0.000133 -0.739968
vn -0.635509 0.000130 -0.772093
vn -0.635517 0.000130 -0.772087
vn 0.635507 0.000000 0.772095
vn 0.672734 0.000000 0.739885
vn 0.672734 0.000000 0.739885
vn 0.635507 0.000000 0.772095
vn 0.000148 0.000000 1.000000
vn 0.000148 0.000000 1.000000
vn 0.073712 0.000000 0.997280
vn 0.073712 0.000000 0.997280
vn 0.000000 -1.000000 0.000000
vn 0.000000 -1.000000 0.000000
vn 0.000000 -1.000000 0.000000
vn 0.000000 -1.000000 0.000000
vn 0.000000 -1.000000 0.000000
vn 0.000000 -1.000000 0.000000
vn -0.098075 0.000000 -0.995179
vn -0.049082 0.000000 -0.998795
vn -0.049082 0.000000 -0.998795
vn -0.098075 0.000000 -0.995179
vn -0.040248 0.911913 -0.408405
vn -0.020131 0.912015 -0.409662
vn -0.030684 0.780501 -0.624401
vn -0.061263 0.780867 -0.621687
vn 0.000000 1.000000 0.000000
vn 0.000000 1.000000 0.000000
vn 0.290606 0.000000 0.956843
vn 0.383212 0.000000 0.923660
vn 0.383212 0.000000 0.923660
vn 0.290606 0.000000 0.956843
vn 0.000000 1.000000 0.000000
vn 0.000000 1.000000 0.000000
vn -0.119509 0.911610 -0.393299
vn -0.157616 0.911590 -0.379685
vn -0.181611 0.780826 -0.597769
vn -0.239513 0.780773 -0.577086
vn -0.383404 0.000016 -0.923581
vn -0.290750 0.000000 -0.956799
vn -0.290750 0.000000 -0.956799
vn -0.383404 0.000016 -0.923581
vn 0.000000 -1.000000 0.000000
vn 0.000000 -1.000000 0.000000
vn 0.000000 -1.000000 0.000000
vn 0.000000 -1.000000 0.000000
vn 0.000000 -1.000000 0.000000
vn 0.000000 -1.000000 0.000000
vn 0.472145 0.000000 0.881521
vn 0.472145 0.000000 0.881521
vn 0.000000 -1.000000 0.000000
vn 0.000000 -1.000000 0.000000
vn 0.000000 -1.000000 0.000000
vn -0.472315 0.000065 -0.881430
vn -0.472322 0.000065 -0.881426
vn -0.194207 0.911554 -0.362426
vn -0.295104 0.780687 -0.550855
vn 0.000000 1.000000 0.000000
vn 0.195241 0.000000 0.980755
vn 0.195241 0.000000 0.980755
vn 0.000000 1.000000 0.000000
vn -0.080276 0.911622 -0.403114
vn -0.121997 0.780855 -0.612684
vn -0.195312 0.000000 -0.980741
vn -0.195312 0.000000 -0.980741
vn 0.000000 -1.000000 0.000000
vn 0.000000 -1.000000 0.000000
vn 0.000000 -1.000000 0.000000
vn 0.556521 0.000000 0.830833
vn 0.556521 0.000000 0.830833
vn 0.000000 1.000000 0.000000
vn -0.228940 0.911501 -0.341690
vn -0.347856 0.780581 -0.519317
vn -0.556643 0.000112 -0.830752
vn -0.556652 0.000112 -0.830746
vn 0.000000 -1.000000 0.000000
vn 0.000000 -1.000000 0.000000
vn 0.000000 -1.000000 0.000000
vn 0.742194 0.000000 0.670186
vn 0.742194 0.000000 0.670186
vn 0.774257 0.000000 0.632871
vn 0.774257 0.000000 0.632871
vn 0.000000 -1.000000 0.000000
vn 0.000000 -1.000000 0.000000
vn 0.000000 -1.000000 0.000000
vn 0.000000 -1.000000 0.000000
vn 0.000000 -1.000000 0.000000
vn 0.000000 -1.000000 0.000000
vn -0.774023 0.000137 -0.633158
vn -0.741977 0.000137 -0.670425
vn -0.741977 0.000137 -0.670425
vn -0.774027 0.000137 -0.633153
vn -0.318625 0.911370 -0.260545
vn -0.306059 0.910976 -0.276498
vn -0.464369 0.779979 -0.419517
vn -0.484068 0.780319 -0.395956
vn 0.000000 1.000000 0.000000
vn 0.000000 1.000000 0.000000
vn 0.883007 0.000000 0.469360
vn 0.924791 0.000000 0.380475
vn 0.924791 0.000000 0.380475
vn 0.883007 0.000000 0.469360
vn 0.000000 1.000000 0.000000
vn 0.000000 1.000000 0.000000
vn -0.363469 0.911319 -0.193360
vn -0.380707 0.911302 -0.156816
vn -0.552179 0.780223 -0.293856
vn -0.578360 0.780193 -0.238324
vn -0.924543 0.000125 -0.381077
vn -0.882745 0.000132 -0.469852
vn -0.882747 0.000132 -0.469848
vn -0.924544 0.000125 -0.381074
vn 0.000000 -1.000000 0.000000
vn 0.000000 -1.000000 0.000000
vn 0.000000 -1.000000 0.000000
vn 0.000000 -1.000000 0.000000
vn 0.000000 -1.000000 0.000000
vn 0.000000 -1.000000 0.000000
vn 0.957637 0.000000 0.287979
vn 0.957637 0.000000 0.287979
vn 0.000000 -1.000000 0.000000
vn 0.000000 -1.000000 0.000000
vn 0.000000 -1.000000 0.000000
vn -0.957424 0.000116 -0.288686
vn -0.957424 0.000116 -0.288684
vn -0.394260 0.911291 -0.118774
vn -0.598945 0.780178 -0.180518
vn 0.000000 1.000000 0.000000
vn 0.981244 0.000000 0.192767
vn 0.981244 0.000000 0.192767
vn 0.000000 -1.000000 0.000000
vn 0.000000 -1.000000 0.000000
vn 0.000000 -1.000000 0.000000
vn -0.981088 0.000105 -0.193565
vn -0.981088 0.000105 -0.193564
vn -0.404002 0.911288 -0.079603
vn -0.613743 0.780179 -0.120998
vn 0.000000 1.000000 0.000000
vn 0.832672 0.000000 0.553767
vn 0.832672 0.000000 0.553767
vn 0.000000 -1.000000 0.000000
vn 0.000000 -1.000000 0.000000
vn 0.000000 -1.000000 0.000000
vn -0.832415 0.000136 -0.554153
vn -0.832418 0.000136 -0.554148
vn -0.342709 0.911342 -0.228050
vn -0.520647 0.780266 -0.346572
vn 0.000000 1.000000 0.000000
s 1
g Inside_Bend
usemtl initialShadingGroup
f 1/21/1 4/24/2 5/23/3 2/22/4
f 2/22/4 5/23/3 6/26/5 3/25/6
s 2
f 4/11/7 79/154/8 84/161/9 5/12/10
f 5/5/10 84/162/9 83/160/11 6/4/12
s 3
f 80/156/13 1/18/14 2/17/15 81/157/16
f 81/157/16 2/17/15 3/20/17 82/158/18
s 4
f 3/1/19 6/4/20 83/160/21 82/159/22
s 5
f 79/153/23 4/9/24 1/8/25 80/155/26
s 6
f 7/27/27 55/114/28 60/121/29 8/28/30
f 8/31/30 60/122/29 59/120/31 9/32/32
s 7
f 13/35/33 16/38/34 17/37/35 14/36/36
f 14/36/36 17/37/35 18/40/37 15/39/38
s 8
f 56/116/39 10/44/40 11/43/41 57/117/42
f 57/117/42 11/43/41 12/46/43 58/118/44
s 9
f 12/47/45 9/32/46 59/120/47 58/119/48
s 10
f 55/113/49 7/51/50 10/50/51 56/115/52
f 16/49/53 13/52/54 38/85/55 37/83/56
s 8
f 16/41/57 37/84/58 42/92/59 17/42/60
f 17/42/60 42/92/59 41/90/61 18/45/62
s 9
f 40/89/63 15/33/64 18/48/65 41/91/66
s 6
f 39/88/67 14/34/68 15/33/69 40/89/70
f 38/86/71 13/30/72 14/29/68 39/87/67
s 10
f 43/93/73 19/53/74 20/55/75 44/95/76
s 6
f 19/54/77 43/94/78 48/101/79 24/61/80
f 24/62/80 48/102/79 47/100/81 23/60/82
s 9
f 23/60/83 47/100/84 46/99/85 22/59/86
s 8
f 45/97/87 21/57/88 22/58/89 46/98/90
f 44/96/91 20/56/92 21/57/88 45/97/87
s 10
f 19/53/74 50/105/93 49/103/94 20/55/75
s 8
f 20/56/92 49/104/95 54/112/96 21/57/88
f 21/57/88 54/112/96 53/110/97 22/58/89
s 9
f 52/109/98 23/60/83 22/59/86 53/111/99
s 6
f 51/108/100 24/62/80 23/60/82 52/109/101
f 50/106/102 19/54/77 24/61/80 51/107/100
s 10
f 38/85/55 26/65/103 25/63/104 37/83/56
s 6
f 26/66/105 38/86/71 39/87/67 27/67/106
f 27/68/106 39/88/67 40/89/70 28/69/107
s 9
f 28/69/108 40/89/63 41/91/66 29/71/109
s 8
f 42/92/59 30/72/110 29/70/111 41/90/61
f 37/84/58 25/64/112 30/72/110 42/92/59
s 10
f 26/65/103 43/93/73 44/95/76 25/63/104
s 8
f 25/64/112 44/96/91 45/97/87 30/72/110
f 30/72/110 45/97/87 46/98/90 29/70/111
s 9
f 47/100/84 28/69/108 29/71/109 46/99/85
s 6
f 48/102/79 27/68/106 28/69/107 47/100/81
f 43/94/78 26/66/105 27/67/106 48/101/79
s 10
f 50/105/93 31/73/113 32/75/114 49/103/94
s 6
f 31/74/115 50/106/102 51/107/100 36/81/116
f 36/82/116 51/108/100 52/109/101 35/80/117
s 9
f 35/80/118 52/109/98 53/111/99 34/79/119
s 8
f 54/112/96 33/77/120 34/78/121 53/110/97
f 49/104/95 32/76/122 33/77/120 54/112/96
s 10
f 31/73/113 55/113/49 56/115/52 32/75/114
s 8
f 32/76/122 56/116/39 57/117/42 33/77/120
f 33/77/120 57/117/42 58/118/44 34/78/121
s 9
f 59/120/47 35/80/118 34/79/119 58/119/48
s 6
f 60/122/29 36/82/116 35/80/117 59/120/31
f 55/114/28 31/74/115 36/81/116 60/121/29
s 5
f 10/7/123 7/10/124 98/185/125 97/183/126
s 3
f 10/15/127 97/184/128 102/192/129 11/16/130
f 11/16/130 102/192/129 101/190/131 12/19/132
s 4
f 100/189/133 9/3/134 12/2/135 101/191/136
s 2
f 99/188/137 8/6/138 9/3/139 100/189/140
f 98/186/141 7/14/142 8/13/138 99/187/137
s 5
f 91/173/143 61/123/144 62/125/145 92/175/146
s 2
f 61/124/147 91/174/148 96/181/149 66/131/150
f 66/132/150 96/182/149 95/180/151 65/130/152
s 4
f 65/130/153 95/180/154 94/179/155 64/129/156
s 3
f 93/177/157 63/127/158 64/128/159 94/178/160
f 92/176/161 62/126/162 63/127/158 93/177/157
s 5
f 61/123/144 86/165/163 85/163/164 62/125/145
s 3
f 62/126/162 85/164/165 90/172/166 63/127/158
f 63/127/158 90/172/166 89/170/167 64/128/159
s 4
f 88/169/168 65/130/153 64/129/156 89/171/169
s 2
f 87/168/170 66/132/150 65/130/152 88/169/171
f 86/166/172 61/124/147 66/131/150 87/167/170
s 5
f 73/143/173 79/153/23 80/155/26 74/145/174
s 3
f 74/146/175 80/156/13 81/157/16 75/147/176
f 75/147/176 81/157/16 82/158/18 76/148/177
s 4
f 83/160/21 77/150/178 76/149/179 82/159/22
s 2
f 84/162/9 78/152/180 77/150/181 83/160/11
f 79/154/8 73/144/182 78/151/180 84/161/9
s 5
f 86/165/163 73/143/173 74/145/174 85/163/164
s 2
f 73/144/182 86/166/172 87/167/170 78/151/180
f 78/152/180 87/168/170 88/169/171 77/150/181
s 4
f 77/150/178 88/169/168 89/171/169 76/149/179
s 3
f 90/172/166 75/147/176 76/148/177 89/170/167
f 85/164/165 74/146/175 75/147/176 90/172/166
s 5
f 68/135/183 91/173/143 92/175/146 67/133/184
s 3
f 67/134/185 92/176/161 93/177/157 72/142/186
f 72/142/186 93/177/157 94/178/160 71/140/187
s 4
f 95/180/154 70/139/188 71/141/189 94/179/155
s 2
f 96/182/149 69/138/190 70/139/191 95/180/151
f 91/174/148 68/136/192 69/137/190 96/181/149
s 5
f 98/185/125 68/135/183 67/133/184 97/183/126
s 2
f 68/136/192 98/186/141 99/187/137 69/137/190
f 69/138/190 99/188/137 100/189/140 70/139/191
s 4
f 70/139/188 100/189/133 101/191/136 71/141/189
s 3
f 102/192/129 72/142/186 71/140/187 101/190/131
f 97/184/128 67/134/185 72/142/186 102/192/129
