# This file uses centimeters as units for non-parametric coordinates.

mtllib OutsideBend_LP.mtl
g default
v -1.000000 0.000000 0.000000
v -0.500000 0.000000 0.000153
v -0.000000 0.000000 0.000000
v -1.000000 1.000000 0.000000
v -0.500000 1.000000 0.000153
v 0.000000 0.600000 -0.000000
v 0.173105 1.000000 -2.940498
v 0.498111 1.000000 -2.560383
v 0.825177 0.600000 -2.183199
v 0.170652 0.000000 -2.937945
v 0.495213 0.000000 -2.557490
v 0.825177 0.000000 -2.183199
v 3.000000 1.000000 -4.004099
v 3.000000 1.000000 -3.501488
v 3.000000 0.600000 -3.000000
v 3.000000 0.000000 -4.003554
v 3.000000 0.000000 -3.500912
v 3.000000 0.000000 -3.000000
v 1.431361 1.000000 -3.750082
v 1.431361 0.000000 -3.749613
v 1.606325 0.000000 -3.271757
v 1.782921 0.000000 -2.796573
v 1.782921 0.600000 -2.796574
v 1.607497 1.000000 -3.273229
v 2.180844 0.000000 -3.942282
v 2.180844 1.000000 -3.942805
v 2.273349 1.000000 -3.445485
v 2.366426 0.600000 -2.949689
v 2.366426 0.000000 -2.949689
v 2.273349 0.000000 -3.444929
v 0.759171 1.000000 -3.415329
v 0.759171 0.000000 -3.414935
v 1.007674 0.000000 -2.972922
v 1.265406 0.000000 -2.539802
v 1.265406 0.600000 -2.539802
v 1.011485 1.000000 -2.976525
v 2.582616 0.000000 -3.988457
v 2.582616 1.000000 -3.988997
v 2.630318 1.000000 -3.487628
v 2.678176 0.600000 -2.987503
v 2.678177 0.000000 -2.987503
v 2.630317 0.000000 -3.487057
v 1.797253 1.000000 -3.864153
v 1.797253 0.000000 -3.863652
v 1.931730 0.000000 -3.373699
v 2.067290 0.000000 -2.886131
v 2.067290 0.600000 -2.886130
v 1.931730 1.000000 -3.374234
v 1.084306 0.000000 -3.599484
v 1.084306 1.000000 -3.599918
v 1.301112 1.000000 -3.141271
v 1.515124 0.600000 -2.681026
v 1.515124 0.000000 -2.681026
v 1.296892 0.000000 -3.137322
v 0.455618 1.000000 -3.195718
v 0.452675 0.000000 -3.192790
v 0.740041 0.000000 -2.779283
v 1.035051 0.000000 -2.373543
v 1.035051 0.600000 -2.373543
v 0.743406 1.000000 -2.782534
v -0.679311 1.000000 -1.632532
v -0.679926 0.000000 -1.631543
v -0.232902 0.000000 -1.421199
v 0.210288 0.000000 -1.209568
v 0.210288 0.600000 -1.209568
v -0.231825 1.000000 -1.422603
v -0.313081 0.000000 -2.337903
v -0.311597 1.000000 -2.339681
v 0.080529 1.000000 -2.037511
v 0.470900 0.600000 -1.735468
v 0.470899 0.000000 -1.735468
v 0.078575 0.000000 -2.035356
v -0.916997 1.000000 -0.841312
v -0.916998 0.000000 -0.841268
v -0.429449 0.000000 -0.734443
v 0.050816 0.000000 -0.622400
v 0.050816 0.600000 -0.622400
v -0.429117 1.000000 -0.735119
v -0.979199 1.000000 -0.423406
v -0.979199 0.000000 -0.423406
v -0.481607 0.000000 -0.371362
v 0.011198 0.000000 -0.312231
v 0.011198 0.600000 -0.312231
v -0.481607 1.000000 -0.371700
v -0.815556 0.000000 -1.245166
v -0.815316 1.000000 -1.245772
v -0.345470 1.000000 -1.086512
v 0.117456 0.600000 -0.922429
v 0.117456 0.000000 -0.922429
v -0.346155 0.000000 -1.085479
v -0.510861 1.000000 -1.998161
v -0.511892 0.000000 -1.996779
v -0.090912 0.000000 -1.738684
v 0.328413 0.000000 -1.481316
v 0.328413 0.600000 -1.481316
v -0.089410 1.000000 -1.740464
v -0.085069 0.000000 -2.652359
v -0.083044 1.000000 -2.654521
v 0.276765 1.000000 -2.311476
v 0.636804 0.600000 -1.970008
v 0.636804 0.000000 -1.970008
v 0.274342 0.000000 -2.308776
vt 0.100431 0.474850
vt 0.100431 0.005532
vt 0.178219 0.005532
vt 0.178219 0.474850
vt 0.272947 0.474850
vt 0.272947 0.005532
vt 0.432271 0.474850
vt 0.432271 0.005532
vt 0.588711 0.005532
vt 0.588711 0.474850
vt 0.017199 0.005532
vt 0.095418 0.005532
vt 0.095418 0.474850
vt 0.017199 0.474850
vt 0.277340 0.005532
vt 0.355559 0.005532
vt 0.355559 0.474850
vt 0.277340 0.474850
vt 0.427785 0.005532
vt 0.427785 0.474850
vt 0.768254 0.010777
vt 0.846474 0.010777
vt 0.846474 0.167216
vt 0.768254 0.167216
vt 0.924694 0.010777
vt 0.924694 0.104640
vt 0.017199 0.514687
vt 0.095418 0.514687
vt 0.095418 0.984005
vt 0.017199 0.984005
vt 0.272947 0.984005
vt 0.178219 0.984005
vt 0.178219 0.514687
vt 0.272947 0.514687
vt 0.764417 0.676054
vt 0.686198 0.676370
vt 0.685566 0.519932
vt 0.763785 0.519616
vt 0.607726 0.614111
vt 0.607347 0.520248
vt 0.277340 0.514687
vt 0.355559 0.514687
vt 0.355559 0.984005
vt 0.277340 0.984005
vt 0.427785 0.514687
vt 0.427785 0.984005
vt 0.100431 0.984005
vt 0.100431 0.514687
vt 0.432271 0.984005
vt 0.432271 0.514687
vt 0.588711 0.514687
vt 0.588711 0.984005
vt 0.588711 0.749346
vt 0.017199 0.749346
vt 0.432271 0.749346
vt 0.277340 0.749346
vt 0.355559 0.749346
vt 0.427785 0.749346
vt 0.100431 0.749346
vt 0.178219 0.749346
vt 0.095418 0.749346
vt 0.272947 0.749346
vt 0.432271 0.866675
vt 0.277340 0.632016
vt 0.588711 0.866675
vt 0.017199 0.866675
vt 0.095418 0.866675
vt 0.272947 0.632016
vt 0.178219 0.632016
vt 0.427785 0.632016
vt 0.100431 0.632016
vt 0.355559 0.632016
vt 0.588711 0.632016
vt 0.017199 0.632016
vt 0.432271 0.632016
vt 0.277340 0.866675
vt 0.355559 0.866675
vt 0.427785 0.866675
vt 0.100431 0.866675
vt 0.178219 0.866675
vt 0.095418 0.632016
vt 0.272947 0.866675
vt 0.432271 0.925340
vt 0.277340 0.573352
vt 0.588711 0.925340
vt 0.017199 0.925340
vt 0.095418 0.925340
vt 0.272947 0.573352
vt 0.178219 0.573352
vt 0.427785 0.573352
vt 0.100431 0.573352
vt 0.355559 0.573352
vt 0.588711 0.808011
vt 0.017199 0.808011
vt 0.432271 0.808011
vt 0.277340 0.690681
vt 0.355559 0.690681
vt 0.427785 0.690681
vt 0.100431 0.690681
vt 0.178219 0.690681
vt 0.095418 0.808011
vt 0.272947 0.690681
vt 0.432271 0.690681
vt 0.277340 0.808011
vt 0.588711 0.690681
vt 0.017199 0.690681
vt 0.095418 0.690681
vt 0.272947 0.808011
vt 0.178219 0.808011
vt 0.427785 0.808011
vt 0.100431 0.808011
vt 0.355559 0.808011
vt 0.588711 0.573352
vt 0.017199 0.573352
vt 0.432271 0.573352
vt 0.277340 0.925340
vt 0.355559 0.925340
vt 0.427785 0.925340
vt 0.100431 0.925340
vt 0.178219 0.925340
vt 0.095418 0.573352
vt 0.272947 0.925340
vt 0.588711 0.240191
vt 0.017199 0.240191
vt 0.432271 0.240191
vt 0.277340 0.240191
vt 0.355559 0.240191
vt 0.427785 0.240191
vt 0.100431 0.240191
vt 0.178219 0.240191
vt 0.095418 0.240191
vt 0.272947 0.240191
vt 0.432271 0.357520
vt 0.277340 0.122861
vt 0.588711 0.357520
vt 0.017199 0.357520
vt 0.095418 0.357520
vt 0.272947 0.122861
vt 0.178219 0.122861
vt 0.427785 0.122861
vt 0.100431 0.122861
vt 0.355559 0.122861
vt 0.588711 0.122861
vt 0.017199 0.122861
vt 0.432271 0.122861
vt 0.277340 0.357520
vt 0.355559 0.357520
vt 0.427785 0.357520
vt 0.100431 0.357520
vt 0.178219 0.357520
vt 0.095418 0.122861
vt 0.272947 0.357520
vt 0.588711 0.064197
vt 0.017199 0.064197
vt 0.432271 0.064197
vt 0.277340 0.416185
vt 0.355559 0.416185
vt 0.427785 0.416185
vt 0.100431 0.416185
vt 0.178219 0.416185
vt 0.095418 0.064197
vt 0.272947 0.416185
vt 0.432271 0.181526
vt 0.277340 0.298856
vt 0.588711 0.181526
vt 0.017199 0.181526
vt 0.095418 0.181526
vt 0.272947 0.298856
vt 0.178219 0.298856
vt 0.427785 0.298856
vt 0.100431 0.298856
vt 0.355559 0.298856
vt 0.588711 0.298856
vt 0.017199 0.298856
vt 0.432271 0.298856
vt 0.277340 0.181526
vt 0.355559 0.181526
vt 0.427785 0.181526
vt 0.100431 0.181526
vt 0.178219 0.181526
vt 0.095418 0.298856
vt 0.272947 0.181526
vt 0.432271 0.416185
vt 0.277340 0.064197
vt 0.588711 0.416185
vt 0.017199 0.416185
vt 0.095418 0.416185
vt 0.272947 0.064197
vt 0.178219 0.064197
vt 0.427785 0.064197
vt 0.100431 0.064197
vt 0.355559 0.064197
vn -0.000306 -0.000000 1.000000
vn -0.000034 0.000000 1.000000
vn -0.000114 0.000000 1.000000
vn -0.000306 -0.000000 1.000000
vn 0.000306 0.000000 1.000000
vn 0.000306 0.000000 1.000000
vn 0.000000 1.000000 0.000000
vn 0.338335 0.940912 0.014635
vn 0.338076 0.940625 0.030494
vn 0.000000 1.000000 0.000000
vn 0.626232 0.779166 0.027089
vn 0.625326 0.778387 0.055506
vn 0.000000 -1.000000 0.000000
vn 0.000000 -1.000000 0.000000
vn 0.000000 -1.000000 0.000000
vn 0.000000 -1.000000 0.000000
vn 0.000000 -1.000000 0.000000
vn 0.000000 -1.000000 0.000000
vn 0.999358 -0.000000 0.035842
vn 0.996684 -0.000000 0.081374
vn 0.996684 -0.000000 0.081374
vn 0.999358 -0.000000 0.035842
vn -0.995168 -0.000001 -0.098184
vn -0.995168 -0.000001 -0.098184
vn -0.998795 0.000000 -0.049067
vn -0.998795 0.000000 -0.049067
vn 0.000000 1.000000 0.000000
vn 0.236811 0.935755 0.261310
vn 0.211683 0.941521 0.262160
vn 0.000000 1.000000 0.000000
vn 0.420000 0.780265 0.463451
vn 0.393389 0.781762 0.483831
vn 1.000000 -0.000000 -0.000000
vn 1.000000 -0.000000 -0.000000
vn 1.000000 -0.000000 -0.000000
vn 1.000000 -0.000000 -0.000000
vn 1.000000 0.000000 0.000000
vn 1.000000 0.000000 0.000000
vn 0.000000 -1.000000 0.000000
vn 0.000000 -1.000000 0.000000
vn 0.000000 -1.000000 0.000000
vn 0.000000 -1.000000 0.000000
vn 0.000000 -1.000000 0.000000
vn 0.000000 -1.000000 0.000000
vn 0.671802 0.000000 0.740731
vn 0.629440 0.000000 0.777049
vn 0.629440 0.000000 0.777049
vn 0.671802 0.000000 0.740731
vn -0.629474 -0.000354 -0.777021
vn -0.629695 -0.000353 -0.776843
vn -0.670403 -0.000224 -0.741997
vn -0.670403 -0.000224 -0.741997
vn -0.036155 -0.000542 -0.999346
vn -0.074605 -0.000535 -0.997213
vn -0.074603 -0.000535 -0.997213
vn -0.036155 -0.000542 -0.999346
vn 0.000000 -1.000000 0.000000
vn 0.000000 -1.000000 0.000000
vn 0.000000 -1.000000 0.000000
vn 0.000000 -1.000000 0.000000
vn 0.000000 -1.000000 0.000000
vn 0.000000 -1.000000 0.000000
vn 0.079159 -0.000000 0.996862
vn 0.079159 -0.000000 0.996862
vn 0.038804 -0.000000 0.999247
vn 0.038804 -0.000000 0.999247
vn 0.026723 0.939941 0.340289
vn 0.048338 0.782371 0.620934
vn 0.023753 0.781692 0.623212
vn 0.013036 0.939601 0.342024
vn 0.000000 1.000000 0.000000
vn 0.000000 1.000000 0.000000
vn -0.249003 -0.000483 -0.968503
vn -0.249010 -0.000483 -0.968501
vn -0.347489 -0.000440 -0.937684
vn -0.347479 -0.000440 -0.937688
vn 0.000000 1.000000 0.000000
vn 0.116780 0.941763 0.315351
vn 0.085337 0.941124 0.327114
vn 0.000000 1.000000 0.000000
vn 0.214990 0.785504 0.580313
vn 0.156016 0.784748 0.599857
vn 0.348208 -0.000000 0.937417
vn 0.348208 -0.000000 0.937417
vn 0.253813 -0.000001 0.967253
vn 0.253813 -0.000001 0.967253
vn 0.000000 -1.000000 0.000000
vn 0.000000 -1.000000 0.000000
vn 0.000000 -1.000000 0.000000
vn 0.000000 -1.000000 0.000000
vn 0.000000 -1.000000 0.000000
vn 0.000000 -1.000000 0.000000
vn -0.445749 -0.000388 -0.895158
vn -0.445737 -0.000388 -0.895164
vn 0.000000 -1.000000 0.000000
vn 0.000000 -1.000000 0.000000
vn 0.000000 -1.000000 0.000000
vn 0.444462 0.000000 0.895798
vn 0.444462 -0.000000 0.895798
vn 0.149178 0.941982 0.300692
vn 0.276022 0.785166 0.554370
vn 0.000000 1.000000 0.000000
vn -0.156970 -0.000516 -0.987603
vn -0.156966 -0.000516 -0.987604
vn 0.000000 1.000000 0.000000
vn 0.055198 0.940452 0.335416
vn 0.100301 0.783494 0.613251
vn 0.163704 -0.000001 0.986509
vn 0.163704 -0.000001 0.986509
vn 0.000000 -1.000000 0.000000
vn 0.000000 -1.000000 0.000000
vn 0.000000 -1.000000 0.000000
vn -0.541089 -0.000422 -0.840965
vn -0.541076 -0.000422 -0.840973
vn 0.000000 1.000000 0.000000
vn 0.181379 0.941715 0.283328
vn 0.336132 0.783740 0.522270
vn 0.539348 -0.000000 0.842083
vn 0.539348 -0.000000 0.842083
vn 0.000000 -1.000000 0.000000
vn 0.000000 -1.000000 0.000000
vn 0.000000 -1.000000 0.000000
vn -0.744937 0.000095 -0.667135
vn -0.778473 0.000180 -0.627677
vn -0.778352 0.000180 -0.627828
vn -0.744936 0.000095 -0.667135
vn 0.000000 -1.000000 0.000000
vn 0.000000 -1.000000 0.000000
vn 0.000000 -1.000000 0.000000
vn 0.000000 -1.000000 0.000000
vn 0.000000 -1.000000 0.000000
vn 0.000000 -1.000000 0.000000
vn 0.784196 0.000000 0.620514
vn 0.784195 0.000000 0.620514
vn 0.749378 0.000000 0.662142
vn 0.749378 0.000000 0.662142
vn 0.265699 0.940391 0.212292
vn 0.493141 0.777472 0.390320
vn 0.470028 0.778070 0.416750
vn 0.243042 0.945776 0.215493
vn 0.000000 1.000000 0.000000
vn 0.000000 1.000000 0.000000
vn -0.887312 0.000271 -0.461169
vn -0.887361 0.000271 -0.461076
vn -0.927097 0.000195 -0.374820
vn -0.927072 0.000195 -0.374884
vn 0.000000 1.000000 -0.000000
vn 0.319605 0.939436 0.123740
vn 0.305771 0.939504 0.154390
vn 0.000000 1.000000 0.000000
vn 0.591067 0.774250 0.226220
vn 0.565830 0.774588 0.282579
vn 0.935570 -0.000000 0.353140
vn 0.935570 -0.000000 0.353140
vn 0.896015 -0.000000 0.444023
vn 0.896015 -0.000000 0.444023
vn 0.000000 -1.000000 0.000000
vn 0.000000 -1.000000 0.000000
vn 0.000000 -1.000000 0.000000
vn 0.000000 -1.000000 0.000000
vn 0.000000 -1.000000 0.000000
vn 0.000000 -1.000000 0.000000
vn -0.957780 0.000088 -0.287502
vn -0.957769 0.000088 -0.287538
vn 0.000000 -1.000000 0.000000
vn 0.000000 -1.000000 0.000000
vn 0.000000 -1.000000 0.000000
vn 0.965041 0.000000 0.262101
vn 0.965041 0.000000 0.262101
vn 0.329303 0.939665 0.092677
vn 0.609084 0.774809 0.169371
vn 0.000000 1.000000 0.000000
vn -0.980729 0.000017 -0.195373
vn -0.980729 0.000017 -0.195370
vn 0.000000 -1.000000 0.000000
vn 0.000000 -1.000000 0.000000
vn 0.000000 -1.000000 0.000000
vn 0.985175 0.000000 0.171555
vn 0.985175 0.000000 0.171555
vn 0.620239 0.776282 0.112651
vn 0.335445 0.940037 0.061701
vn 0.000000 1.000000 0.000000
vn -0.837855 0.000277 -0.545893
vn -0.837935 0.000277 -0.545770
vn 0.000000 -1.000000 0.000000
vn 0.000000 -1.000000 0.000000
vn 0.000000 -1.000000 0.000000
vn 0.845689 -0.000000 0.533676
vn 0.845689 -0.000000 0.533676
vn 0.533166 0.775722 0.337622
vn 0.287747 0.939845 0.184100
vn 0.000000 1.000000 -0.000000
s 1
g Outside_Bend
usemtl initialShadingGroup
f 1/21/1 2/22/2 5/23/3 4/24/4
f 2/22/2 3/25/5 6/26/6 5/23/3
s 2
f 4/11/7 5/12/8 84/161/9 79/154/10
f 5/5/8 6/4/11 83/160/12 84/162/9
s 3
f 80/156/13 81/157/14 2/17/15 1/18/16
f 81/157/14 82/158/17 3/20/18 2/17/15
s 4
f 3/1/19 82/159/20 83/160/21 6/4/22
s 5
f 79/153/23 80/155/24 1/8/25 4/9/26
s 6
f 7/27/27 8/28/28 60/121/29 55/114/30
f 8/31/28 9/32/31 59/120/32 60/122/29
s 7
f 13/35/33 14/36/34 17/37/35 16/38/36
f 14/36/34 15/39/37 18/40/38 17/37/35
s 8
f 56/116/39 57/117/40 11/43/41 10/44/42
f 57/117/40 58/118/43 12/46/44 11/43/41
s 9
f 12/47/45 58/119/46 59/120/47 9/32/48
s 10
f 55/113/49 56/115/50 10/50/51 7/51/52
f 16/49/53 37/83/54 38/85/55 13/52/56
s 8
f 16/41/57 17/42/58 42/92/59 37/84/60
f 17/42/58 18/45/61 41/90/62 42/92/59
s 9
f 40/89/63 41/91/64 18/48/65 15/33/66
s 6
f 39/88/67 40/89/68 15/33/69 14/34/70
f 38/86/71 39/87/67 14/29/70 13/30/72
s 10
f 43/93/73 44/95/74 20/55/75 19/53/76
s 6
f 19/54/77 24/61/78 48/101/79 43/94/80
f 24/62/78 23/60/81 47/100/82 48/102/79
s 9
f 23/60/83 22/59/84 46/99/85 47/100/86
s 8
f 45/97/87 46/98/88 22/58/89 21/57/90
f 44/96/91 45/97/87 21/57/90 20/56/92
s 10
f 19/53/76 20/55/75 49/103/93 50/105/94
s 8
f 20/56/92 21/57/90 54/112/95 49/104/96
f 21/57/90 22/58/89 53/110/97 54/112/95
s 9
f 52/109/98 53/111/99 22/59/84 23/60/83
s 6
f 51/108/100 52/109/101 23/60/81 24/62/78
f 50/106/102 51/107/100 24/61/78 19/54/77
s 10
f 38/85/55 37/83/54 25/63/103 26/65/104
s 6
f 26/66/105 27/67/106 39/87/67 38/86/71
f 27/68/106 28/69/107 40/89/68 39/88/67
s 9
f 28/69/108 29/71/109 41/91/64 40/89/63
s 8
f 42/92/59 41/90/62 29/70/110 30/72/111
f 37/84/60 42/92/59 30/72/111 25/64/112
s 10
f 26/65/104 25/63/103 44/95/74 43/93/73
s 8
f 25/64/112 30/72/111 45/97/87 44/96/91
f 30/72/111 29/70/110 46/98/88 45/97/87
s 9
f 47/100/86 46/99/85 29/71/109 28/69/108
s 6
f 48/102/79 47/100/82 28/69/107 27/68/106
f 43/94/80 48/101/79 27/67/106 26/66/105
s 10
f 50/105/94 49/103/93 32/75/113 31/73/114
s 6
f 31/74/115 36/81/116 51/107/100 50/106/102
f 36/82/116 35/80/117 52/109/101 51/108/100
s 9
f 35/80/118 34/79/119 53/111/99 52/109/98
s 8
f 54/112/95 53/110/97 34/78/120 33/77/121
f 49/104/96 54/112/95 33/77/121 32/76/122
s 10
f 31/73/114 32/75/113 56/115/50 55/113/49
s 8
f 32/76/122 33/77/121 57/117/40 56/116/39
f 33/77/121 34/78/120 58/118/43 57/117/40
s 9
f 59/120/47 58/119/46 34/79/119 35/80/118
s 6
f 60/122/29 59/120/32 35/80/117 36/82/116
f 55/114/30 60/121/29 36/81/116 31/74/115
s 5
f 10/7/123 97/183/124 98/185/125 7/10/126
s 3
f 10/15/127 11/16/128 102/192/129 97/184/130
f 11/16/128 12/19/131 101/190/132 102/192/129
s 4
f 100/189/133 101/191/134 12/2/135 9/3/136
s 2
f 99/188/137 100/189/138 9/3/139 8/6/140
f 98/186/141 99/187/137 8/13/140 7/14/142
s 5
f 91/173/143 92/175/144 62/125/145 61/123/146
s 2
f 61/124/147 66/131/148 96/181/149 91/174/150
f 66/132/148 65/130/151 95/180/152 96/182/149
s 4
f 65/130/153 64/129/154 94/179/155 95/180/156
s 3
f 93/177/157 94/178/158 64/128/159 63/127/160
f 92/176/161 93/177/157 63/127/160 62/126/162
s 5
f 61/123/146 62/125/145 85/163/163 86/165/164
s 3
f 62/126/162 63/127/160 90/172/165 85/164/166
f 63/127/160 64/128/159 89/170/167 90/172/165
s 4
f 88/169/168 89/171/169 64/129/154 65/130/153
s 2
f 87/168/170 88/169/171 65/130/151 66/132/148
f 86/166/172 87/167/170 66/131/148 61/124/147
s 5
f 73/143/173 74/145/174 80/155/24 79/153/23
s 3
f 74/146/175 75/147/176 81/157/14 80/156/13
f 75/147/176 76/148/177 82/158/17 81/157/14
s 4
f 83/160/21 82/159/20 76/149/178 77/150/179
s 2
f 84/162/9 83/160/12 77/150/180 78/152/181
f 79/154/10 84/161/9 78/151/181 73/144/182
s 5
f 86/165/164 85/163/163 74/145/174 73/143/173
s 2
f 73/144/182 78/151/181 87/167/170 86/166/172
f 78/152/181 77/150/180 88/169/171 87/168/170
s 4
f 77/150/179 76/149/178 89/171/169 88/169/168
s 3
f 90/172/165 89/170/167 76/148/177 75/147/176
f 85/164/166 90/172/165 75/147/176 74/146/175
s 5
f 68/135/183 67/133/184 92/175/144 91/173/143
s 3
f 67/134/185 72/142/186 93/177/157 92/176/161
f 72/142/186 71/140/187 94/178/158 93/177/157
s 4
f 95/180/156 94/179/155 71/141/188 70/139/189
s 2
f 96/182/149 95/180/152 70/139/190 69/138/191
f 91/174/150 96/181/149 69/137/191 68/136/192
s 5
f 98/185/125 97/183/124 67/133/184 68/135/183
s 2
f 68/136/192 69/137/191 99/187/137 98/186/141
f 69/138/191 70/139/190 100/189/138 99/188/137
s 4
f 70/139/189 71/141/188 101/191/134 100/189/133
s 3
f 102/192/129 101/190/132 71/140/187 72/142/186
f 97/184/130 102/192/129 72/142/186 67/134/185
